<svg id="_イヤー_2" xmlns="http://www.w3.org/2000/svg" viewBox="0 0 29.05 28.617"><defs><style>.cls-1{fill:#4b6e2d}</style></defs><g id="_集モード"><path class="cls-1" d="M24.122 8.446c.593.46.919.919.979 1.379.118.996-.595 1.801-2.138 2.413-1.781.727-4.661 1.091-8.639 1.091-4.274 0-7.302-.422-9.083-1.264-1.188-.536-1.781-1.207-1.781-2.011 0-.575.504-1.129 1.514-1.666a9.214 9.214 0 013.117-.919l.178.689C6.31 8.617 5.3 9.174 5.242 9.825c0 .537.652.996 1.959 1.379 1.603.498 3.977.747 7.124.747 2.969 0 5.344-.287 7.125-.862 1.365-.421 2.048-.862 2.048-1.321 0-.421-.148-.727-.445-.919-.298-.191-.802-.382-1.514-.575l.089-.689c1.009.115 1.84.402 2.494.862zM10.318 5.459c.83.996 1.246 1.838 1.246 2.528s-.298 1.284-.891 1.781c-.594.537-1.514 1.015-2.76 1.437l-.535-.345c.771-.421 1.247-.862 1.425-1.322.179-.345.268-.862.268-1.551.059-.575-.298-1.321-1.068-2.241-.534-.651-.832-1.283-.891-1.896 0-.421.178-.805.534-1.149.356-.306 1.038-.689 2.048-1.149l.535.345c-.595.689-.891 1.341-.891 1.954 0 .307.325.843.979 1.609zm4.274-1.207c.949 1.379 1.425 2.452 1.425 3.218 0 .804-.268 1.475-.802 2.011-.594.613-1.544 1.207-2.85 1.781l-.623-.345c.712-.497 1.187-.996 1.425-1.494.236-.46.356-1.111.356-1.954 0-.689-.387-1.57-1.158-2.643-.534-.766-.802-1.494-.802-2.183 0-.498.179-.957.535-1.379C12.453.919 13.107.498 14.057 0l.623.287c-.594.805-.891 1.59-.891 2.356 0 .307.268.843.802 1.608zm5.076 1.264c.831.997 1.247 1.82 1.247 2.471 0 .613-.268 1.169-.802 1.666-.595.575-1.545 1.092-2.85 1.552l-.624-.345c.713-.383 1.188-.785 1.425-1.207.237-.382.356-.938.356-1.666 0-.575-.387-1.321-1.157-2.241-.534-.651-.802-1.283-.802-1.896 0-.46.207-.881.623-1.264.356-.345.979-.708 1.87-1.092l.624.402c-.713.804-1.011 1.494-.891 2.068.059.345.385.862.979 1.551z"/><path class="cls-1" d="M25.523 25.589l3.175 2.137c.569.415.447.712-.366.891H.244L0 27.993h22.959l2.564-2.404zm-16.73-1.781v1.069c0 .356-.164.594-.488.712-.326.12-.732.208-1.222.267-1.303.178-1.953.06-1.953-.356V10.272l4.029 1.514h9.77l1.344-1.603 3.297 2.315c.489.356.406.654-.244.891l-.61.178v10.776c0 .476-.122.772-.366.89-.733.238-1.588.356-2.564.356-.488 0-.733-.147-.733-.445v-1.336H8.793zm0-11.399v5.076h10.258v-5.076H8.793zm0 5.7v5.076h10.258v-5.076H8.793z"/></g></svg>