<svg id="_イヤー_2" xmlns="http://www.w3.org/2000/svg" viewBox="0 0 235.913 92.301"><defs><style>.cls-2{fill:#bf0000}</style></defs><g id="logo"><path d="M9.055 91.82c-6.66 0-8.04-14.039-8.04-18.959 0-1.44.3-3.36 2.16-3.36 2.1 0 3.06 2.94 3.54 4.5 1.2 3.66 3 6.9 5.46 9.899.54.721 1.2 1.381 1.8 2.101.48.6.72 1.02.72 1.8 0 2.399-3.6 4.02-5.64 4.02zm11.759-5.279c-5.28 0-8.1-8.76-8.34-12.96-3.78-.96-6.839-2.939-6.839-7.199 0-1.44 1.5-5.521 1.979-6.96.72-2.16.9-4.5.9-6.72 0-1.62-.12-3.78-.9-5.22-.84-1.56-3.84-3.12-3.84-4.62 0-1.8 2.94-1.86 4.14-1.86 2.4 0 5.34.24 7.439 1.5 3.18-.3 6.36-1.2 9.42-1.98 4.26-1.08 11.459-3.06 15.839-3.06 1.5 0 2.94.12 4.38.42 1.92.36 7.799 2.1 7.799 4.68 0 1.74-1.2 2.22-2.76 2.22-1.14 0-2.28-.3-3.42-.48-1.56-.3-3.12-.48-4.68-.48-2.7 0-5.52.72-8.1 1.32 1.26.42 2.46 1.2 2.64 2.64 2.1-.42 4.26-.78 6.42-.78 1.86 0 3.96.24 5.52 1.261 1.08.72 2.16 1.68 2.16 3.06 0 1.2-.72 1.74-1.86 1.74-1.38 0-3.24-.841-5.22-.841-2.4 0-4.92.721-7.26 1.2-.06.72-.24 1.98-.18 2.7 1.74-.24 4.68-.84 6.36-.84 2.34 0 8.1.84 8.1 4.14 0 1.439-.9 1.92-2.22 1.92-1.02 0-2.22-.42-3.18-.66-.9-.18-1.8-.3-2.7-.3-2.22 0-4.44.42-6.6.84 0 1.2-.06 2.46-.12 3.66 2.52-.54 5.28-1.26 7.86-1.26 3.419 0 6.78 1.14 9.54 3.18 2.22 1.62 2.58 4.979 2.58 7.56 0 4.26-.6 8.579-2.16 12.539-.72 1.86-1.74 3.36-3.6 4.2-2.04.96-5.339 1.08-7.56 1.08-7.379 0-14.219-1.92-20.519-5.76-.36.06-.66.12-1.02.12zm4.44-23.22c-1.62.24-3.3.48-4.92.48s-3.24-.42-4.74-1.14c-.3 1.199-1.02 2.64-1.02 3.84 0 .54.24 1.14.42 1.619 3.24-.239 6.48-.479 9.66-.96.06-.18.6-3.659.6-3.84zm.9-8.039c-1.26.18-2.58.42-3.9.42-1.8 0-3.6-.36-5.34-.9-.18 1.561-.42 3.061-.66 4.62.3.06.54.06.84.06 2.28 0 6.419-.96 8.819-1.38.06-.899.3-1.979.24-2.819zM42.413 83.48c-.54 0-1.14-.06-1.56-.359-1.2-.78-2.16-3.96-2.58-5.28-.18-.479-1.5-4.619-1.98-4.619-.54 0-1.44 4.02-1.56 4.499-.3 1.32-1.26 6.18-2.52 6.9-.48.3-1.08.239-1.62.239-2.94 0-5.7-5.939-6.6-8.219-.18-.601-.66-1.801-.66-2.4 0-.18 0-.3.06-.479-2.28.18-4.62.359-6.9.359.9 2.22 3.48 4.62 5.16 6.24.84.779 2.1 2.04 2.1 3.239 0 .24-.06.54-.12.78 3.48 1.14 7.08 1.74 10.74 1.74 3.18 0 7.08-.54 9.419-3-.42.24-.9.359-1.38.359zM26.514 48.622c0-.66-.9-1.32-1.38-1.62-2.7.42-5.4.9-8.1.96.06 1.08.06 2.16.06 3.24.3.06.66.06.96.06 2.1 0 4.32-.479 6.36-.899.6-.12 1.26-.3 1.86-.36h.24c-.12-.479 0-.899 0-1.38zm9.06 22.739c-2.64.6-5.28 1.26-7.919 1.86 1.26 1.38 2.22 3.119 3.12 4.739.9-1.56 3.06-5.64 4.8-6.6zm1.14-.18c3.24 0 8.7 4.979 9.18 8.1.42-1.38.6-2.82.6-4.26 0-1.62-.06-5.82-2.52-5.82-1.74 0-5.64 1.5-7.56 1.98h.3zm43.92-.959c.42-.9.84-.9 1.68-.9 1.86 0 9.06-5.88 11.58-7.079 1.5-.721 3.12-1.2 4.8-1.2 5.76 0 14.579 5.819 14.579 12.06 0 4.14-6.54 7.739-9.659 9.3 2.459.72 6.419 2.159 6.419 5.279 0 1.979-1.08 4.439-3.42 4.439-2.46 0-6.06-1.979-8.64-1.979-2.04 0-4.919.66-6.959 1.02-2.7.48-5.64 1.141-8.4 1.141-8.1 0-8.759-6.48-8.879-12.84-1.2 1.5-2.82 2.88-4.86 2.88-3.6 0-8.16-4.62-8.16-8.159 0-1.021.96-1.32 1.74-1.561 2.34-.779 7.62-8.52 9.12-10.8-3.36-.18-10.859-2.159-10.859-6.419 0-2.16 2.28-2.34 3.9-2.4 4.08-.18 9.479-2.1 13.259-3.54.42-1.199 1.14-3.06 1.14-4.26 0-1.98-2.64-3.18-2.64-5.4 0-2.34 2.7-2.64 4.5-2.64 3.54 0 10.68 1.62 10.68 6.12 0 .48-.06 1.02-.18 1.5 2.52-.96 5.22-1.5 7.919-1.5 3.96 0 7.74 1.02 11.16 3.06 2.46 1.44 5.28 3.72 5.28 6.839 0 2.641-1.86 3.48-4.26 3.48-1.86 0-5.58-1.38-7.32-1.98-1.38-.479-2.76-.659-4.2-.659-1.86 0-6.36 1.56-8.1 2.22-.42.12-4.86 1.739-4.98 1.859-.78 1.44-1.32 2.7-1.98 3.96-1.439 2.7-2.939 5.28-4.5 7.86l.24.3zm13.02 11.64c3.42-3.42 6.54-7.62 8.28-12.12.24-.66.66-1.859.66-2.58 0-.84-.48-1.199-1.26-1.199-2.88 0-9.6 10.499-16.019 10.499-1.68 0-3-1.02-4.02-2.34-.06.84-.12 1.62-.12 2.46 0 1.62-.06 5.88 1.5 6.899.6.42 1.38.42 2.04.42 2.58 0 6.12-1.38 8.76-1.859l.18-.18zm27.121-13.8c0-4.439 2.58-6.72 4.68-10.26.12-.18.42-.66.42-.899 0-.66-4.079-3.78-4.079-5.7 0-2.58 4.68-4.56 4.68-5.46 0-.6-2.521-2.7-2.521-4.98 0-1.8.601-3.36 2.641-3.36 2.46 0 8.039 7.98 8.039 10.32 0 2.64-3.42 4.38-5.1 6.06 1.32 1.2 4.32 4.08 4.32 6.06 0 2.939-2.101 5.34-3.42 7.8.479.84 1.8 2.64 1.8 3.54 0 .84-.12 1.68-.3 2.46a25.831 25.831 0 00-.54 5.279c0 2.1.06 4.26.3 6.36.12 1.14.3 2.279.3 3.419 0 2.341-1.14 3.54-3.479 3.54-1.74 0-2.88-.72-3.3-2.46-.36-1.56-.24-5.819-.24-7.499 0-1.561.12-3.12.12-4.68 0-.721 0-1.62.06-2.341.061-.3.12-.659.12-.96-3.3-.239-4.5-3.359-4.5-6.239zm31.319 17.579c0 1.021 0 1.98-.061 3-.12 1.979-.42 3.479-2.7 3.479-3.6 0-3.659-3.6-3.659-6.3-2.58.601-5.28 1.381-7.979 1.381-2.341 0-5.94-1.5-5.94-4.32 0-1.5 2.46-1.439 3.48-1.439.72 0 1.5-.12 2.22-.301-.061-.659-.061-1.38-.061-2.04 0-.539.061-1.079.061-1.619-1.92-.42-3.6-1.5-3.6-3.66 0-1.2 1.26-1.38 2.159-1.38 2.76 0 5.521-.54 8.16-1.2-.601-.42-.96-.96-1.021-1.68-1.5.36-3.18.84-4.739.84-2.64 0-3.84-3.12-3.84-5.34 0-1.14.24-2.34.54-3.42 0-.12.06-.18.06-.3 0-.48-1.14-1.08-1.14-2.04 0-1.08.899-1.38 1.859-1.38 1.32 0 2.58.36 3.48 1.44h1.26c2.16 0 6.12-3.66 9.899-3.66 2.1 0 4.74 1.319 5.939 3.06.181-.12.421-.18.601-.24l1.439.12c3.061-.84 8.52-4.199 11.64-4.199 2.04 0 5.58 2.159 5.58 4.439 0 1.8-1.56 3.18-3.36 3.18-.72 0-1.38-.42-2.039-.42-.421 0-.96.18-1.381.3 2.101.9 3.36 2.34 3.42 4.68.181 5.58.181 11.28.181 16.859 0 1.86.12 6.78-1.38 8.22-.48.48-1.2.601-1.86.601-2.76 0-5.699-3.54-7.5-5.22l-1.619-1.44c-.24.3-.66.48-1.021.48-1.2 0-2.819-1.681-4.92-1.681-.72 0-1.439.061-2.159.24v.96zm8.399-32.278c0 1.319-.42 2.399-1.92 2.399-1.141 0-2.58-1.68-5.04-1.68-.96 0-2.04.36-3 .6-1.74.48-10.199 3-12.359 3-2.22 0-5.58-1.439-5.58-4.02 0-.96.601-1.32 1.5-1.32.48 0 1.021.12 1.5.12 1.32 0 2.64-.3 3.9-.66.12-.06.3-.119.42-.119.239-.841.54-1.681.779-2.521-.72.24-1.5.42-2.279.42-2.521 0-3.9-1.14-3.9-3.72 0-.48 0-1.44.721-1.44.3 0 .6.12.899.12 1.14 0 4.979-1.5 6.12-1.92.06-.18.06-.3.06-.48 0-1.32-1.38-1.62-1.38-2.88 0-1.44.78-2.1 2.16-2.1 2.46 0 5.04.66 5.1 3.54 3.6 0 8.22 1.86 8.22 6.12 0 .72-.06 1.44-.12 2.16 1.98.72 4.2 1.979 4.2 4.38zm-8.82 5.159c0-.18-.06-.42-.3-.42-.779 0-5.52 5.521-9.359 5.521-.96 0-1.92-.36-2.64-1.021-.061.66-.12 1.38-.12 2.04 0 .42.06 1.2.66 1.2 1.319 0 7.68-1.86 9.18-2.28 1.08-1.26 2.579-3.239 2.579-5.04zm-5.999 18c-1.2.42-2.521.659-3.78.96 0 .84.061 1.739.061 2.579l3.72-1.02v-2.52zm5.279-31.619c0-.48-.18-.84-.72-.84-.3 0-2.4 1.38-2.7 1.56-.239 1.2-.479 2.46-.84 3.66 1.2-.42 2.521-.78 3.78-.96.18-1.08.479-2.28.479-3.42zm13.979 28.859c0-1.141-.06-2.221-.06-3.301 0-1.199.06-2.399.06-3.6 0-1.62-1.02-1.319-1.979-2.52-.721.24-1.44.359-2.16.359-1.74 0-3.18-.84-4.32-2.1-.239.54-.659.96-1.02 1.44.96.6 1.68 1.38 1.68 2.579 0 .9-.239 1.681-1.26 1.681-1.14 0-2.22-.9-3.359-.9s-2.34.42-3.42.66c.72.3 1.56.78 1.979 1.5.66-.12 1.38-.24 2.1-.24 2.58 0 7.38.96 7.38 4.32 0 1.02-.359 1.859-1.5 1.859s-2.699-.779-4.26-.779c-.96 0-1.979.239-2.939.42 0 .96.06 1.979.12 2.939 2.819 0 8.879 1.02 9.119 4.68 1.2.42 2.64 1.2 3.84 1.44V73.76zm4.68-27.36c-1.92 0-5.46 2.94-7.979 2.94-2.34 0-5.16-1.68-5.16-4.32 0-1.32 1.32-1.56 2.4-1.56 2.64 0 6.84-4.2 10.739-4.2 2.82 0 5.82.72 5.82 4.08 0 2.1-.9 3.3-3.061 3.3-.899 0-1.859-.24-2.76-.24zm19.982 10.44c-.18 2.22-.479 4.5-.479 6.72 0 5.82.24 11.699 1.26 17.399.3 1.86.9 4.14.9 6 0 2.399-.54 5.34-3.54 5.34-7.2 0-6.899-15.779-6.899-20.22 0-6.539.96-13.079 1.5-19.559.119-1.38.359-2.88.359-4.26 0-2.161-2.04-2.161-2.04-4.081 0-1.5.84-2.16 2.28-2.16 1.92 0 3.96.48 5.58 1.56 1.5 1.02 1.979 2.58 1.979 4.32 0 .84-.3 1.8-.36 2.701l-.54 6.239zm28.979 30.419c-2.88-2.34-6.06-4.32-9.18-6.359-1.021-.66-5.82-3.721-5.82-5.101 0-.72.54-.96 1.2-.96 1.32 0 2.94.54 4.2.9 2.819.72 5.699 1.38 8.579 2.1 1.8.42 4.021 1.141 5.88 1.141.66 0 .78-.601.78-1.141 0-.779-.24-1.68-.36-2.46-.72-4.199-.6-8.76-.6-13.02 0-6.479.899-12.659 2.04-19.019.06-.48.12-.96.12-1.44 0-1.02-.181-2.64-1.561-2.64-1.62 0-5.52 7.86-6.239 9.3-.601 1.319-1.98 4.319-3.36 4.979-.42.18-.84.24-1.319.24-4.141 0-7.021-4.92-8.58-8.16v3.72c0 2.04.6 4.08.6 6.12 0 2.82-1.14 4.62-4.14 4.62-3.72 0-5.819-2.88-7.199-6-1.32-3.06-3.18-7.86-3.18-11.22 0-2.28 1.079-3.48 3.359-3.48 2.16 0 2.88 1.5 3.18 3.42.36 2.22.721 4.44 1.141 6.66.06.42.3 1.561.96 1.561s2.279-6.12 2.46-6.84c.359-1.32 1.14-4.8 2.22-5.7.42-.36 1.02-.42 1.62-.42 3.539 0 4.739 7.2 6.6 7.2.84 0 4.56-4.74 5.1-5.34 1.26-1.44 2.819-2.88 4.859-2.88 3.36 0 7.02 1.86 9.78 3.66 2.1 1.38 3.3 3.3 3.3 5.88 0 1.32-.181 2.641-.36 3.9-.479 4.14-.9 8.279-.9 12.419 0 4.68.601 9.3 1.261 13.92.42 2.819.899 5.819.899 8.699 0 4.74-2.76 6.72-7.319 6.72-2.28 0-4.56-.479-6.36-1.979l-3.659-3zM19.889 2.42c.87 0 1.71.06 2.55.21 1.2.21 4.08.99 4.08 2.58 0 1.08-1.08 1.26-1.95 1.26-.78 0-1.62-.21-2.37-.33-.9-.15-1.8-.24-2.7-.24-2.43 0-5.34.63-7.74 1.11-1.44.27-2.88.57-4.35.81-.78.12-1.68.33-2.49.33C3.749 8.15 0 7.67 0 5.96c0-.9 1.11-.87 1.74-.87.3 0 .6.06.9.06.96 0 2.01-.27 2.94-.45.99-.21 1.98-.39 2.97-.6-.03-.21-.06-.39-.06-.6 0-2.04 1.74-2.459 3.45-2.459 1.38 0 2.52.54 3.18 1.8 1.59-.21 3.18-.42 4.77-.42zM9.299 20.839c.96-.33 1.89-.63 2.82-1.02 1.14-.48 2.52-.96 3.78-.96s4.77.63 4.77 2.31c0 .99-1.71 2.04-2.43 2.49.63.3 1.29.75 1.47 1.47.54.12 1.11.21 1.65.3.03-.39.03-.81.03-1.2 0-1.35-.03-2.73-.03-4.08 0-1.02-.15-2.76-1.53-2.76-1.95 0-5.85 1.2-7.74 1.74-.99.27-3.03.87-4.05.87-1.08 0-2.1-.27-2.82-1.11-.15 1.17-.21 2.34-.21 3.51 0 1.53.18 3.06.18 4.59 0 1.17-.66 1.65-1.77 1.65-2.1 0-2.46-2.01-2.46-3.69 0-1.8.15-3.63.24-5.43 0-.24.06-.51.06-.75 0-.6-1.05-.63-1.05-1.5 0-.84.54-1.14 1.32-1.14.69 0 3.03.6 3.48 1.11.09-.09.18-.15.3-.15.39 0 .78.12 1.17.12 1.71 0 5.1-.96 6.78-1.41 1.83-.48 3.75-.93 5.67-.93 2.43 0 6.87 1.65 7.26 4.41.09.63.06 1.35.06 1.979.03 1.14.03 2.31.03 3.45 0 1.47-.21 3.93-2.19 3.93-.63 0-1.53-.66-2.01-1.02-.81-.6-1.65-1.17-2.52-1.68-.18.18-.42.33-.69.33-.48 0-1.29-.48-2.04-.48-.51 0-1.02.09-1.53.18-1.14.21-2.28.36-3.42.54-.9.15-1.89.36-2.82.36-1.83 0-2.61-1.41-2.61-3.06 0-.54.12-1.08.12-1.59 0-.42-.6-.48-.6-1.17 0-.48.3-.66.75-.66.69 0 1.35.18 1.98.45l.09-.03.51.03zm13.2-7.169c0 .63-.39.9-.99.9-.51 0-1.89-.36-2.43-.45-.24-.03-.45-.06-.69-.06-1.38 0-3.15.45-4.5.75-1.68.36-4.95 1.23-6.72 1.23-1.44 0-2.58-.69-3.12-2.04-.15-.33-.27-.75-.27-1.11 0-.6.12-1.17.12-1.77 0-.75-1.05-.51-1.05-1.439 0-.75.6-.96 1.26-.96.93 0 2.01.15 2.729.78.24-.12.6-.12.87-.15.9-.06 2.13-.57 2.97-.9 1.41-.57 4.26-1.74 5.79-1.74.81 0 1.62.09 2.4.24 1.11.21 3.63 1.02 3.63 2.46 0 .99-1.95 2.07-2.67 2.49.84.18 2.67.63 2.67 1.77zm-7.89-1.8c.6-.42 3.42-2.37 3.42-3.18 0-.33-.27-.42-.54-.42-1.23 0-5.61 3.48-8.34 3.48-.78 0-1.47-.39-2.04-.87v1.35c0 .33.03.78.24 1.05.03 0 .06-.03.09-.03.57-.12 1.14-.18 1.71-.27l4.41-.9 1.05-.21zM9.089 22.4c0 .27 0 2.22.48 2.22.36 0 1.5-.33 1.92-.45 1.14-.3 2.25-.6 3.42-.84.45-.45 1.95-1.98 1.95-2.64 0-.21-.12-.27-.3-.27-.87 0-3.72 2.34-6.18 2.34-.45 0-.9-.21-1.29-.45v.09zm46.11 2.549c0 1.92-.36 3.21-2.55 3.21-1.41 0-2.52-.57-2.73-2.07-2.46.12-4.92.48-7.35.84-2.04.3-4.17.66-6.24.66-1.92 0-3.69-.54-4.74-2.25-.75-1.2-.78-4.59-.78-5.97 0-2.79.18-5.61.3-8.4.03-1.02.09-2.01.15-3 .03-.54.09-1.08.09-1.59 0-.93.03-1.05-.66-1.68-.39-.36-.6-.66-.6-1.23 0-.87.45-1.26 1.29-1.26 1.59 0 3.81 1.11 3.87 2.91h.15c.9 0 2.04-.42 2.88-.75 2.22-.9 6.54-2.61 8.94-2.61 2.82 0 6.93 1.83 7.74 4.74.27.96.24 4.23.24 5.28v13.169zm-15.179-7.14c-.66.15-1.32.3-2.01.3-1.26 0-2.31-.48-3.21-1.35 0 .93-.03 1.86-.03 2.79 0 1.53.27 3.51 2.19 3.51.93 0 2.22-.36 3.12-.54-.12-1.56-.06-3.15-.06-4.71zm.03-6.75c0-.93.03-1.32-.72-1.89-.36.09-.75.12-1.14.12-1.17 0-2.22-.42-3.12-1.14-.06 2.04-.12 4.05-.24 6.09.15 0 .33.03.48.03 1.2 0 3.6-.84 4.74-1.26v-1.95zm9.81-4.02c0-.66-.12-1.41-.93-1.41-.6 0-4.5 1.68-5.34 2.04 1.14.78.99 2.4.99 3.57 0 .09.03.15.03.24 1.02-.3 2.1-.51 3.18-.51.69 0 1.41.12 2.04.39 0-1.44.03-2.88.03-4.32zm-.03 8.43c-.27-.03-.57-.06-.84-.06-1.14 0-3.3.69-4.38 1.05.06 1.71.03 3.42.03 5.13 1.08-.18 2.67-.54 3.75-.54.48 0 .96.09 1.41.21 0-1.08.03-2.16.03-3.24v-2.55zm13.74 12.96c-3.33 0-4.02-7.02-4.02-9.479 0-.72.15-1.68 1.08-1.68 1.05 0 1.53 1.47 1.77 2.25.6 1.83 1.5 3.45 2.73 4.95.27.36.6.69.9 1.05.24.3.36.51.36.9 0 1.2-1.8 2.01-2.82 2.01zm5.879-2.64c-2.64 0-4.05-4.379-4.169-6.479-1.89-.48-3.42-1.47-3.42-3.6 0-.72.75-2.76.99-3.479.36-1.08.45-2.25.45-3.36 0-.81-.06-1.89-.45-2.61-.42-.78-1.92-1.56-1.92-2.31 0-.9 1.47-.93 2.07-.93 1.2 0 2.67.12 3.72.75 1.59-.15 3.18-.6 4.709-.99 2.13-.54 5.73-1.53 7.92-1.53.75 0 1.47.06 2.19.21.96.18 3.9 1.05 3.9 2.34 0 .87-.6 1.11-1.38 1.11-.57 0-1.14-.15-1.71-.24-.78-.15-1.56-.24-2.34-.24-1.35 0-2.76.36-4.05.66.63.21 1.23.6 1.32 1.32 1.05-.21 2.13-.39 3.21-.39.93 0 1.979.12 2.76.63.54.36 1.08.84 1.08 1.53 0 .6-.36.87-.93.87-.69 0-1.62-.42-2.61-.42-1.2 0-2.46.36-3.63.6-.03.36-.12.99-.09 1.35.87-.12 2.34-.42 3.18-.42 1.17 0 4.05.42 4.05 2.07 0 .72-.45.96-1.11.96-.51 0-1.11-.21-1.59-.33-.45-.09-.9-.15-1.35-.15-1.11 0-2.22.21-3.3.42 0 .6-.03 1.23-.06 1.83 1.26-.27 2.64-.63 3.93-.63 1.71 0 3.39.57 4.77 1.59 1.11.81 1.29 2.49 1.29 3.78 0 2.13-.3 4.29-1.08 6.27-.36.93-.87 1.68-1.8 2.1-1.02.48-2.67.54-3.78.54-3.69 0-7.11-.96-10.26-2.88-.18.03-.33.06-.51.06zm2.22-11.609c-.81.12-1.65.24-2.46.24s-1.62-.21-2.37-.57c-.15.6-.51 1.32-.51 1.92 0 .27.12.57.21.81 1.62-.12 3.24-.24 4.83-.48.03-.09.3-1.83.3-1.92zm.45-4.02c-.63.09-1.29.21-1.95.21-.9 0-1.8-.18-2.67-.45-.09.78-.21 1.53-.33 2.31.15.03.27.03.42.03 1.14 0 3.21-.48 4.41-.69.03-.45.15-.99.12-1.41zm8.13 14.1c-.27 0-.57-.03-.78-.18-.6-.39-1.08-1.98-1.29-2.64-.09-.24-.75-2.31-.99-2.31-.27 0-.72 2.01-.78 2.25-.15.66-.63 3.09-1.26 3.45-.24.15-.54.12-.81.12-1.47 0-2.85-2.97-3.3-4.11-.09-.3-.33-.9-.33-1.2 0-.09 0-.15.03-.24-1.14.09-2.31.18-3.45.18.45 1.11 1.74 2.31 2.58 3.12.42.39 1.05 1.02 1.05 1.62 0 .12-.03.27-.06.39 1.74.57 3.54.87 5.37.87 1.59 0 3.54-.27 4.71-1.5-.21.12-.45.18-.69.18zm-7.95-17.429c0-.33-.45-.66-.69-.81-1.35.21-2.7.45-4.05.48.03.54.03 1.08.03 1.62.15.03.33.03.48.03 1.05 0 2.16-.24 3.18-.45.3-.06.63-.15.93-.18h.12c-.06-.24 0-.45 0-.69zm4.53 11.37c-1.32.3-2.64.63-3.96.93.63.69 1.11 1.56 1.56 2.37.45-.78 1.53-2.82 2.4-3.3zm.57-.09c1.62 0 4.35 2.49 4.59 4.05.21-.69.3-1.41.3-2.13 0-.81-.03-2.91-1.26-2.91-.87 0-2.82.75-3.78.99h.15zm37.92-8.251c0 .36-.03 1.65-.24 1.95-.27.36-.93.42-1.35.42-.6 0-1.83-.03-2.04-.75-.15-.06-.3-.09-.45-.09-1.35 0-3.479.51-4.8.81l-1.35.27c-.21.06-.48.06-.69.12-.27.09-4.5 1.23-4.5 1.98 0 .18.51.18.57.18 1.11 0 3.12-.72 4.17-1.08 2.07-.69 4.5-1.38 6.69-1.38 1.41 0 5.64.3 5.64 2.31 0 .75-.3 1.2-1.08 1.2-.42 0-1.02-.21-1.41-.36a8.18 8.18 0 00-2.67-.45c-1.08 0-2.22.24-3.27.45-1.11.24-8.76 2.13-8.76 3.27 0 .3.36.3.57.3.57 0 1.979-.66 2.52-.9 2.1-.96 5.58-2.459 7.89-2.459 2.13 0 5.55.9 5.55 3.54 0 2.16-.18 4.26-.33 6.39-.12 1.68-.39 3.06-2.4 3.06-1.65 0-2.73-1.29-3.42-2.64-.39 1.2-1.11 2.64-2.55 2.64-1.02 0-2.67-1.08-2.67-2.19 0-.36.24-.48.57-.48 1.56 0 2.16-4.17 2.16-5.28 0-.48-.24-.69-.51-1.02-.69.27-1.38.69-2.04 1.05.15.15.36.39.36.6 0 .06-.03.12-.03.18-.03.18-.03.33-.03.51-.09 1.83-1.38 6.24-3.66 6.24-1.17 0-2.43-1.05-2.43-2.25 0-.21.03-.51.33-.48.15.03.3.06.45.06.57 0 2.46-3.12 2.46-3.75 0-.06-.03-.12-.03-.18-.36.09-.75.12-1.14.12-1.02 0-2.19-.21-2.82-1.08-.57 2.79-2.43 6.84-5.76 6.84-1.98 0-3.51-1.23-3.51-3.3 0-2.28 1.11-3.78 3.27-4.53v-4.71c-.33.15-.66.27-1.02.27-1.229 0-2.189-.99-2.189-2.22 0-.6.3-.81.84-.9.75-.12 1.77-.84 2.4-1.26 0-1.8.03-3.57.03-5.37 0-.99-1.02-1.02-1.02-2.04 0-.87.51-1.23 1.35-1.23.93 0 1.89.24 2.67.72.48.3.54 1.02.54 1.53 0 .45-.03.9-.03 1.35v3.18c1.26 0 2.94 1.02 2.94 2.43 0 .84-.24 1.68-1.23 1.68-.48 0-.9-.33-1.32-.33-.12 0-.27.06-.39.12 0 2.46-.06 4.919-.06 7.379 0 .15.03.3.03.45.81-1.14 1.56-2.28 2.19-3.51.09-.15.27-.6.51-.6.21 0 .24.69.24.81.24-.36.51-.69.78-.99-.57-.15-1.23-.48-1.23-1.17 0-1.23 1.53-2.37 2.43-2.97-1.23-.81-1.11-3.27-1.11-4.53 0-1.17.12-2.37.24-3.54.03-.18.03-.36.03-.54 0-.39-.66-.39-.66-1.08 0-.6.42-.81.96-.81.75 0 1.62.15 2.1.78.03-.03.09-.03.12-.03s.09 0 .12.03c0 0 .24.06.27.06.39 0 2.25-.57 2.67-.69 1.23-.36 3.15-.9 4.44-.9 1.47 0 2.82.51 3.959 1.41.75.57 1.11.96 1.11 1.92 0 .6-.03 1.2-.03 1.8 0 1.14.06 2.31.06 3.45v.21zM92.55 22.1c-.15-.06-.33-.12-.51-.12-.66 0-1.44.87-1.44 1.53 0 .54.42.72.9.72.36 0 .75-.21 1.05-.36V22.1zm9.99-13.439c0 .72.15 1.68 1.08 1.68.27 0 1.35-.24 1.62-.3.87-.9 1.8-1.77 2.76-2.58-.21.06-.45.15-.66.21-.45.12-2.46.69-2.91.69-.72 0-1.56-.18-1.89-.9v1.2zm9.089-4.56c0-.27.03-.57.03-.84 0-.33-.09-.57-.48-.57-.18 0-.99.36-1.17.42-1.47.6-4.26 1.71-5.879 1.71-.54 0-1.02-.21-1.41-.6-.09.81-.15 1.59-.15 2.4.12-.09.27-.09.42-.09.63 0 2.19-.45 2.79-.63 1.05-.3 3.15-.9 4.229-.9.54 0 1.17.03 1.65.3 0-.39-.03-.81-.03-1.2zm0 2.61l-.36.03c-1.38.87-2.67 1.92-3.99 2.88 1.11-.24 2.28-.45 3.42-.45.3 0 .63.03.93.12v-2.58zm-.03 18.569c.21 0 .27-.15.33-.3.18-.45.6-5.88.6-6.39s-.24-.9-.78-.9c-.75 0-1.74.66-2.4.84.96.36 1.62 1.02 1.62 2.1 0 1.41-.24 2.82-.51 4.2.36.15.72.45 1.14.45z" fill="#fff"/><path class="cls-2" d="M145.561 8.446c.593.46.919.919.979 1.379.118.996-.595 1.801-2.138 2.413-1.781.727-4.661 1.091-8.639 1.091-4.274 0-7.302-.422-9.083-1.264-1.188-.536-1.781-1.207-1.781-2.011 0-.575.504-1.129 1.514-1.666a9.214 9.214 0 013.117-.919l.178.689c-1.959.459-2.969 1.016-3.027 1.667 0 .537.652.996 1.959 1.379 1.603.498 3.977.747 7.124.747 2.969 0 5.344-.287 7.125-.862 1.365-.421 2.048-.862 2.048-1.321 0-.421-.148-.727-.445-.919-.298-.191-.802-.382-1.514-.575l.089-.689c1.009.115 1.84.402 2.494.862zm-13.804-2.987c.83.996 1.246 1.838 1.246 2.528s-.298 1.284-.891 1.781c-.594.537-1.514 1.015-2.76 1.437l-.535-.345c.771-.421 1.247-.862 1.425-1.322.179-.345.268-.862.268-1.551.059-.575-.298-1.321-1.068-2.241-.534-.651-.832-1.283-.891-1.896 0-.421.178-.805.534-1.149.356-.306 1.038-.689 2.048-1.149l.535.345c-.595.689-.891 1.341-.891 1.954 0 .307.325.843.979 1.609zm4.274-1.207c.949 1.379 1.425 2.452 1.425 3.218 0 .804-.268 1.475-.802 2.011-.594.613-1.544 1.207-2.85 1.781l-.623-.345c.712-.497 1.187-.996 1.425-1.494.236-.46.356-1.111.356-1.954 0-.689-.387-1.57-1.158-2.643-.534-.766-.802-1.494-.802-2.183 0-.498.179-.957.535-1.379.355-.345 1.009-.766 1.959-1.264l.623.287c-.594.805-.891 1.59-.891 2.356 0 .307.268.843.802 1.608zm5.076 1.264c.831.997 1.247 1.82 1.247 2.471 0 .613-.268 1.169-.802 1.666-.595.575-1.545 1.092-2.85 1.552l-.624-.345c.713-.383 1.188-.785 1.425-1.207.237-.382.356-.938.356-1.666 0-.575-.387-1.321-1.157-2.241-.534-.651-.802-1.283-.802-1.896 0-.46.207-.881.623-1.264.356-.345.979-.708 1.87-1.092l.624.402c-.713.804-1.011 1.494-.891 2.068.059.345.385.862.979 1.551z"/><path class="cls-2" d="M146.962 25.589l3.175 2.137c.569.415.447.712-.366.891h-28.088l-.244-.624h22.959l2.564-2.404zm-16.73-1.781v1.069c0 .356-.164.594-.488.712-.326.12-.732.208-1.222.267-1.303.178-1.953.06-1.953-.356V10.272l4.029 1.514h9.77l1.344-1.603 3.297 2.315c.489.356.406.654-.244.891l-.61.178v10.776c0 .476-.122.772-.366.89-.733.238-1.588.356-2.564.356-.488 0-.733-.147-.733-.445v-1.336h-10.258zm0-11.399v5.076h10.258v-5.076h-10.258zm0 5.7v5.076h10.258v-5.076h-10.258z"/></g></svg>